ply
format ascii 1.0
comment Created by Open Asset Import Library - http://assimp.sf.net (v3.3.10147455)
element vertex 114
property float x
property float y
property float z
property float nx
property float ny
property float nz
element face 224
property list uchar int vertex_index
end_header
0.3826834261417389 0.9238795042037964 0 0.3673984408378601 0.9285320639610291 0.05335099995136261
0.6532814502716065 0.7071067690849304 0.2705980539321899 -0.6088328361511231 -0.717791736125946 -0.3377835750579834
0.7071067690849304 0.7071067690849304 0 0.6917521953582764 0.7177915573120117 -0.07908105850219727
0.6532814502716065 0.7071067690849304 -0.2705980539321899 -0.6088328361511231 -0.717791736125946 0.3377835750579834
0.3535533845424652 0.9238795042037964 -0.1464466154575348 -0.3190149068832398 -0.9285328388214111 0.1898854970932007
0 1 0 -0.0245194174349308 -0.9996681809425354 0.00789361447095871
0.3535533845424652 0.9238795042037964 0.1464466154575348 -0.3190149068832398 -0.9285328388214111 -0.1898854970932007
0.2705980539321899 0.9238795042037964 0.2705980539321899 -0.297512948513031 -0.9285327196121216 -0.2220653295516968
0.2705980539321899 0.7071067690849304 0.6532814502716065 0.3377835750579834 0.717791736125946 0.6088328957557678
0.5 0.7071067690849304 0.5 0.4332239627838135 0.7177916169166565 0.5450616478919983
0.1464466154575348 0.9238795042037964 0.3535533845424652 0.09130842238664627 0.9285328388214111 0.3598468005657196
2.343260234861246e-017 0.9238795042037964 0.3826834261417389 -0.05334940925240517 -0.9285327792167664 -0.3673973083496094
-0.2705980539321899 0.7071067690849304 0.6532814502716065 0.3377834558486939 -0.717791736125946 -0.6088327169418335
4.329779970841032e-017 0.7071067690849304 0.7071067690849304 0.07908117771148682 0.7177918553352356 0.6917522549629211
-0.1464466154575348 0.9238795042037964 0.3535533845424652 0.09130842238664627 -0.9285328388214111 -0.3598468005657196
-0.2705980539321899 0.9238795042037964 0.2705980539321899 -0.2975129187107086 0.928532600402832 0.2220653593540192
-0.6532814502716065 0.7071067690849304 0.2705980539321899 -0.6088328361511231 0.717791736125946 0.3377835750579834
-0.5 0.7071067690849304 0.5 0.4332239627838135 -0.7177916169166565 -0.5450616478919983
-0.3535533845424652 0.9238795042037964 0.1464466154575348 0.3598467111587524 -0.9285327792167664 -0.09130842983722687
-0.3826834261417389 0.9238795042037964 4.686520469722492e-017 0.3673984408378601 -0.9285320639610291 0.05335099995136261
-0.6532814502716065 0.7071067690849304 -0.2705980539321899 -0.6088328361511231 0.717791736125946 -0.3377835750579834
-0.7071067690849304 0.7071067690849304 8.659559941682064e-017 0.6917521953582764 -0.7177915573120117 -0.07908105850219727
-0.3535533845424652 0.9238795042037964 -0.1464466154575348 0.3598467111587524 -0.9285327792167664 0.09130842983722687
-0.2705980539321899 0.9238795042037964 -0.2705980539321899 -0.297512948513031 0.9285327196121216 -0.2220653295516968
-0.2705980539321899 0.7071067690849304 -0.6532814502716065 -0.3377835750579834 0.717791736125946 -0.6088328957557678
-0.5 0.7071067690849304 -0.5 -0.4332239627838135 0.7177916169166565 -0.5450616478919983
-0.1464466154575348 0.9238795042037964 -0.3535533845424652 -0.09130842238664627 0.9285328388214111 -0.3598468005657196
-7.029780539147615e-017 0.9238795042037964 -0.3826834261417389 0.05334940925240517 0.9285327792167664 -0.3673973083496094
0.2705980539321899 0.7071067690849304 -0.6532814502716065 -0.3377835750579834 -0.717791736125946 0.6088328957557678
-1.298934156688432e-016 0.7071067690849304 -0.7071067690849304 -0.07908102869987488 -0.7177916765213013 0.6917524337768555
0.1464466154575348 0.9238795042037964 -0.3535533845424652 -0.1898849904537201 -0.9285323619842529 0.3190162479877472
0.2705980539321899 0.9238795042037964 -0.2705980539321899 -0.2220653295516968 -0.9285328984260559 0.2975126504898071
0.5 0.7071067690849304 -0.5 -0.4332239627838135 -0.7177916169166565 0.5450616478919983
0.9238795042037964 0.3826834261417389 0 -0.9119049310684204 -0.4067935049533844 0.0542992502450943
0.6532814502716065 0.3826834261417389 0.6532814502716065 0.6832124590873718 0.4067960977554321 0.6064138412475586
0.8535534143447876 0.3826834261417389 0.3535533845424652 -0.821707546710968 -0.4067961275577545 -0.3991413116455078
5.657130560897519e-017 0.3826834261417389 0.9238795042037964 0.05430467799305916 0.4067961871623993 0.9119033217430115
0.3535533845424652 0.3826834261417389 0.8535534143447876 0.3991413414478302 0.4067961871623993 0.821707546710968
-0.6532814502716065 0.3826834261417389 0.6532814502716065 0.6832124590873718 -0.4067960977554321 -0.6064138412475586
-0.3535533845424652 0.3826834261417389 0.8535534143447876 0.3991413414478302 -0.4067961871623993 -0.821707546710968
-0.9238795042037964 0.3826834261417389 1.131426112179504e-016 -0.9119049310684204 0.4067935049533844 0.0542992502450943
-0.8535534143447876 0.3826834261417389 0.3535533845424652 -0.821707546710968 0.4067961275577545 0.3991413116455078
-0.6532814502716065 0.3826834261417389 -0.6532814502716065 0.6832124590873718 -0.4067960977554321 0.6064138412475586
-0.8535534143447876 0.3826834261417389 -0.3535533845424652 -0.821707546710968 0.4067961275577545 -0.3991413116455078
-1.697139300618154e-016 0.3826834261417389 -0.9238795042037964 -0.05430467799305916 -0.4067961871623993 0.9119033217430115
-0.3535533845424652 0.3826834261417389 -0.8535534143447876 0.2987994253635407 -0.4067960977554321 0.8632704019546509
0.6532814502716065 0.3826834261417389 -0.6532814502716065 -0.6064139604568481 -0.4067962169647217 0.6832124590873718
0.3535533845424652 0.3826834261417389 -0.8535534143447876 -0.3991413414478302 -0.4067961871623993 0.821707546710968
0.8535534143447876 0.3826834261417389 -0.3535533845424652 -0.821707546710968 -0.4067961275577545 0.3991413116455078
0.9238795042037964 6.123233601181349e-017 0.3826834261417389 0.9373564720153809 -0.03777308389544487 0.3463171720504761
1 6.123233601181349e-017 0 0.9985345005989075 -0.03777296096086502 0.03875546157360077
0.9238795042037964 6.123233601181349e-017 -0.3826834261417389 0.9373565912246704 -0.03777307644486427 -0.3463172018527985
0.3826834261417389 6.123233601181349e-017 0.9238795042037964 0.3463175892829895 -0.037773497402668 0.9373565316200256
0.7071067690849304 6.123233601181349e-017 0.7071067690849304 0.7334749102592468 -0.03777302801609039 0.678666353225708
-0.3826834261417389 6.123233601181349e-017 0.9238795042037964 0.4179282486438751 0.03777266293764114 -0.907694399356842
6.123233601181349e-017 6.123233601181349e-017 1 -0.03875542804598808 0.0377730093896389 -0.9985345005989075
-0.9238795042037964 6.123233601181349e-017 0.3826834261417389 0.9373565912246704 0.03777308017015457 -0.3463172018527985
-0.7071067690849304 6.123233601181349e-017 0.7071067690849304 0.7334748506546021 0.03777309879660606 -0.6786664724349976
-0.9238795042037964 6.123233601181349e-017 -0.3826834261417389 0.9076946377754211 0.03777302801609039 0.4179279804229736
-1 6.123233601181349e-017 1.224646852585168e-016 0.9985345005989075 0.03777296096086502 0.03875545784831047
-0.3826834261417389 6.123233601181349e-017 -0.9238795042037964 0.3463177084922791 0.03777354583144188 0.9373565316200256
-0.7071067690849304 6.123233601181349e-017 -0.7071067690849304 0.7334748506546021 0.03777309879660606 0.6786664724349976
0.3826834261417389 6.123233601181349e-017 -0.9238795042037964 0.4179282486438751 0.03777266293764114 -0.907694399356842
-1.836970278877752e-016 6.123233601181349e-017 -1 0.03875542804598808 -0.0377730093896389 -0.9985345005989075
0.7071067690849304 6.123233601181349e-017 -0.7071067690849304 0.678666353225708 -0.03777299448847771 -0.7334748506546021
0.9238795042037964 -0.3826834261417389 0 -0.9119049310684204 0.4067935049533844 -0.0542992502450943
0.6532814502716065 -0.3826834261417389 0.6532814502716065 0.6832124590873718 -0.4067960977554321 0.6064138412475586
0.8535534143447876 -0.3826834261417389 0.3535533845424652 -0.821707546710968 0.4067961275577545 -0.3991413116455078
5.657130560897519e-017 -0.3826834261417389 0.9238795042037964 -0.05430467799305916 -0.4067961871623993 0.9119033217430115
0.3535533845424652 -0.3826834261417389 0.8535534143447876 -0.3991413414478302 0.4067961871623993 -0.821707546710968
-0.6532814502716065 -0.3826834261417389 0.6532814502716065 -0.6064139604568481 -0.4067962169647217 0.6832124590873718
-0.3535533845424652 -0.3826834261417389 0.8535534143447876 0.2987994253635407 0.4067961275577545 -0.8632704615592957
-0.9238795042037964 -0.3826834261417389 1.131426112179504e-016 -0.9119049310684204 -0.4067935049533844 -0.0542992502450943
-0.8535534143447876 -0.3826834261417389 0.3535533845424652 -0.821707546710968 -0.4067961275577545 0.3991413116455078
-0.6532814502716065 -0.3826834261417389 -0.6532814502716065 -0.6064139604568481 -0.4067962169647217 -0.6832124590873718
-0.8535534143447876 -0.3826834261417389 -0.3535533845424652 -0.8632705211639404 -0.4067959785461426 -0.2987993657588959
-1.697139300618154e-016 -0.3826834261417389 -0.9238795042037964 0.05430467799305916 0.4067961871623993 0.9119033217430115
-0.3535533845424652 -0.3826834261417389 -0.8535534143447876 0.2987994253635407 0.4067961275577545 0.8632704615592957
0.6532814502716065 -0.3826834261417389 -0.6532814502716065 0.6832124590873718 -0.4067960977554321 -0.6064138412475586
0.3535533845424652 -0.3826834261417389 -0.8535534143447876 0.2987994253635407 -0.4067960977554321 -0.8632704019546509
0.8535534143447876 -0.3826834261417389 -0.3535533845424652 -0.8632705211639404 0.406796008348465 0.2987993359565735
0.6532814502716065 -0.7071067690849304 0.2705980539321899 -0.6088329553604126 0.7177919745445252 -0.3377835750579834
0.7071067690849304 -0.7071067690849304 0 0.6917520761489868 -0.7177916169166565 -0.07908110320568085
0.6532814502716065 -0.7071067690849304 -0.2705980539321899 -0.6088328361511231 0.717791736125946 0.3377835750579834
0.2705980539321899 -0.7071067690849304 0.6532814502716065 -0.3377835750579834 0.717791736125946 -0.6088328957557678
0.5 -0.7071067690849304 0.5 -0.4332239627838135 0.7177916169166565 -0.5450616478919983
-0.2705980539321899 -0.7071067690849304 0.6532814502716065 -0.3377835750579834 -0.717791736125946 0.6088328957557678
4.329779970841032e-017 -0.7071067690849304 0.7071067690849304 -0.07908102869987488 -0.7177916765213013 0.6917524337768555
-0.6532814502716065 -0.7071067690849304 0.2705980539321899 -0.6088328361511231 -0.717791736125946 0.3377835750579834
-0.5 -0.7071067690849304 0.5 -0.4332239627838135 -0.7177916169166565 0.5450616478919983
-0.6532814502716065 -0.7071067690849304 -0.2705980539321899 -0.6088329553604126 -0.7177919745445252 -0.3377835750579834
-0.7071067690849304 -0.7071067690849304 8.659559941682064e-017 0.6917520761489868 0.7177916169166565 -0.07908110320568085
-0.2705980539321899 -0.7071067690849304 -0.6532814502716065 0.3377835750579834 0.717791736125946 0.6088328957557678
-0.5 -0.7071067690849304 -0.5 0.4332239627838135 0.7177916169166565 0.5450616478919983
0.2705980539321899 -0.7071067690849304 -0.6532814502716065 0.3377835750579834 -0.717791736125946 -0.6088328957557678
-1.298934156688432e-016 -0.7071067690849304 -0.7071067690849304 0.07908102869987488 -0.7177916765213013 -0.6917524337768555
0.5 -0.7071067690849304 -0.5 0.4332239627838135 -0.7177916169166565 -0.5450616478919983
0.3826834261417389 -0.9238795042037964 0 0.3673984408378601 -0.9285320639610291 -0.05335099995136261
0.2705980539321899 -0.9238795042037964 0.2705980539321899 -0.2220653295516968 0.9285328984260559 -0.2975126504898071
0.3535533845424652 -0.9238795042037964 0.1464466154575348 -0.3190149068832398 0.9285328388214111 -0.1898854970932007
2.343260234861246e-017 -0.9238795042037964 0.3826834261417389 0.05334940925240517 -0.9285327792167664 0.3673973083496094
0.1464466154575348 -0.9238795042037964 0.3535533845424652 -0.09130842238664627 0.9285328388214111 -0.3598468005657196
-0.2705980539321899 -0.9238795042037964 0.2705980539321899 -0.2220653295516968 -0.9285329580307007 0.2975126802921295
-0.1464466154575348 -0.9238795042037964 0.3535533845424652 -0.09130842238664627 -0.9285328388214111 0.3598468005657196
-0.3826834261417389 -0.9238795042037964 4.686520469722492e-017 0.3673984408378601 0.9285320639610291 -0.05335099995136261
-0.3535533845424652 -0.9238795042037964 0.1464466154575348 0.3598467111587524 0.9285327792167664 -0.09130842983722687
-0.2705980539321899 -0.9238795042037964 -0.2705980539321899 -0.2220653295516968 -0.9285328984260559 -0.2975126504898071
-0.3535533845424652 -0.9238795042037964 -0.1464466154575348 -0.3190149068832398 -0.9285328388214111 -0.1898854970932007
-7.029780539147615e-017 -0.9238795042037964 -0.3826834261417389 -0.05334940925240517 0.9285327792167664 0.3673973083496094
-0.1464466154575348 -0.9238795042037964 -0.3535533845424652 0.09130842238664627 0.9285328388214111 0.3598468005657196
0.2705980539321899 -0.9238795042037964 -0.2705980539321899 -0.2220653295516968 0.9285329580307007 0.2975126802921295
0.1464466154575348 -0.9238795042037964 -0.3535533845424652 0.09130842238664627 -0.9285328388214111 -0.3598468005657196
0.3535533845424652 -0.9238795042037964 -0.1464466154575348 0.3598467111587524 -0.9285327792167664 -0.09130842983722687
0 -1 0 -0.01751835457980633 0.9998462200164795 -0.0007379502058029175
3 0 1 2
3 0 3 4
3 0 5 6
3 6 1 0
3 6 5 7
3 7 1 6
3 7 8 9
3 7 5 10
3 10 8 7
3 10 5 11
3 11 8 10
3 11 12 13
3 11 5 14
3 14 12 11
3 14 5 15
3 15 12 14
3 15 16 17
3 15 5 18
3 18 16 15
3 18 5 19
3 19 16 18
3 19 20 21
3 19 5 22
3 22 20 19
3 22 5 23
3 23 20 22
3 23 24 25
3 23 5 26
3 26 24 23
3 26 5 27
3 27 24 26
3 27 28 29
3 27 5 30
3 30 28 27
3 30 5 31
3 31 28 30
3 31 3 32
3 31 5 4
3 4 3 31
3 4 5 0
3 2 3 0
3 2 33 3
3 1 33 2
3 1 34 35
3 9 1 7
3 9 34 1
3 8 34 9
3 8 36 37
3 13 8 11
3 13 36 8
3 12 36 13
3 12 38 39
3 17 12 15
3 17 38 12
3 16 38 17
3 16 40 41
3 21 16 19
3 21 40 16
3 20 40 21
3 20 42 43
3 25 20 23
3 25 42 20
3 24 42 25
3 24 44 45
3 29 24 27
3 29 44 24
3 28 44 29
3 28 46 47
3 32 28 31
3 32 46 28
3 3 33 48
3 3 46 32
3 33 49 50
3 33 51 48
3 35 33 1
3 35 49 33
3 34 49 35
3 34 52 53
3 37 34 8
3 37 52 34
3 36 52 37
3 36 54 55
3 39 36 12
3 39 54 36
3 38 54 39
3 38 56 57
3 41 38 16
3 41 56 38
3 40 56 41
3 40 58 59
3 43 40 20
3 43 58 40
3 42 58 43
3 42 60 61
3 45 42 24
3 45 60 42
3 44 60 45
3 44 62 63
3 47 44 28
3 47 62 44
3 46 62 47
3 46 51 64
3 48 46 3
3 48 51 46
3 50 51 33
3 50 65 51
3 49 65 50
3 49 66 67
3 53 49 34
3 53 66 49
3 52 66 53
3 52 68 69
3 55 52 36
3 55 68 52
3 54 68 55
3 54 70 71
3 57 54 38
3 57 70 54
3 56 70 57
3 56 72 73
3 59 56 40
3 59 72 56
3 58 72 59
3 58 74 75
3 61 58 42
3 61 74 58
3 60 74 61
3 60 76 77
3 63 60 44
3 63 76 60
3 62 76 63
3 62 78 79
3 64 62 46
3 64 78 62
3 51 65 80
3 51 78 64
3 65 81 82
3 65 83 80
3 67 65 49
3 67 81 65
3 66 81 67
3 66 84 85
3 69 66 52
3 69 84 66
3 68 84 69
3 68 86 87
3 71 68 54
3 71 86 68
3 70 86 71
3 70 88 89
3 73 70 56
3 73 88 70
3 72 88 73
3 72 90 91
3 75 72 58
3 75 90 72
3 74 90 75
3 74 92 93
3 77 74 60
3 77 92 74
3 76 92 77
3 76 94 95
3 79 76 62
3 79 94 76
3 78 94 79
3 78 83 96
3 80 78 51
3 80 83 78
3 82 83 65
3 82 97 83
3 81 97 82
3 81 98 99
3 85 81 66
3 85 98 81
3 84 98 85
3 84 100 101
3 87 84 68
3 87 100 84
3 86 100 87
3 86 102 103
3 89 86 70
3 89 102 86
3 88 102 89
3 88 104 105
3 91 88 72
3 91 104 88
3 90 104 91
3 90 106 107
3 93 90 74
3 93 106 90
3 92 106 93
3 92 108 109
3 95 92 76
3 95 108 92
3 94 108 95
3 94 110 111
3 96 94 78
3 96 110 94
3 83 97 112
3 83 110 96
3 97 113 112
3 99 97 81
3 99 113 97
3 98 113 99
3 101 98 84
3 101 113 98
3 100 113 101
3 103 100 86
3 103 113 100
3 102 113 103
3 105 102 88
3 105 113 102
3 104 113 105
3 107 104 90
3 107 113 104
3 106 113 107
3 109 106 92
3 109 113 106
3 108 113 109
3 111 108 94
3 111 113 108
3 110 113 111
3 112 110 83
3 112 113 110
